{"title":"China.Moon.1994.HDTV.1080i","uid":13695719,"size":3876613211,"categoryP":"video","categoryS":"hd___movies","magnet":"?xt=urn:btih:459f3b207f446aab688ea1e5a14d52e8145f03f9&amp;dn=China.Moon.1994.HDTV.1080i&amp;tr=udp%3A%2F%2Ftracker.leechers-paradise.org%3A6969&amp;tr=udp%3A%2F%2Fzer0day.ch%3A1337&amp;tr=udp%3A%2F%2Fopen.demonii.com%3A1337&amp;tr=udp%3A%2F%2Ftracker.coppersurfer.tk%3A6969&amp;tr=udp%3A%2F%2Fexodus.desync.com%3A6969","seeders":1,"leechers":0,"uploader":null,"files":1,"time":1456695627,"description":"http://www.imdb.com/title/tt0109417\r\n\r\nA 10\r\nV 10\r\n\r\n\r\ni.imgur.com/VCXeasv.png\r\n\r\ni.imgur.com/HAp8767.jpg\r\n\r\n\r\nGeneral\r\nFile size                   : 3.61 GiB\r\nDuration                    : 1h 35mn\r\nOverall bit rate            : 5 414 Kbps\r\n\r\nVideo\r\nID                          : 1\r\nFormat                      : AVC\r\nFormat/Info                 : Advanced Video Codec\r\nFormat profile              :   \r\nFormat settings, CABAC      : Yes\r\nFormat settings, ReFrames   : 4 frames\r\nFormat settings, GOP        : M=4, N=28\r\nCodec ID                    : V_MPEG4/ISO/AVC\r\nDuration                    : 1h 35mn\r\nBit rate                    : 5 026 Kbps\r\nWidth                       : 1 920 pixels\r\nHeight                      : 1 080 pixels\r\nDisplay aspect ratio        : 16:9\r\nFrame rate mode             : Variable\r\nFrame rate                  : 50.000 fps\r\nOriginal frame rate         : 25.000 fps\r\nStandard                    : Component\r\nColor space                 : YUV\r\nChroma subsampling          : 4:2:0\r\nBit depth                   : 8 bits\r\nScan type                   : Interlaced\r\nScan type, store method     : Separated fields\r\nScan order                  : Top Field First\r\nBits/(Pixel*Frame)          : 0.048\r\nStream size                 : 3.35 GiB (93%)\r\nDefault                     : No\r\nForced                      : No\r\nColor range                 : Limited\r\nColor primaries             : BT.709\r\nTransfer characteristics    : BT.709\r\nMatrix coefficients         : BT.709\r\n\r\n\r\n\r\nAudio #2\r\nID                          : 3\r\nFormat                      : AC-3\r\nFormat/Info                 : Audio Coding 3\r\nMode extension              : CM (complete main)\r\nFormat settings, Endianness : Big\r\nCodec ID                    : A_AC3\r\nDuration                    : 1h 35mn\r\nBit rate mode               : Constant\r\nBit rate                    : 192 Kbps\r\nChannel(s)                  : 2 channels\r\nChannel positions           : Front: L R\r\nSampling rate               : 48.0 KHz\r\nFrame rate                  : 31.250 fps (1536 spf)\r\nCompression mode            : Lossy\r\nStream size                 : 131 MiB (4%)\r\nLanguage                    : English\r\nDefault                     : No\r\nForced                      : No","torrent":{"xt":"urn:btih:459f3b207f446aab688ea1e5a14d52e8145f03f9","amp;dn":"China.Moon.1994.HDTV.1080i","amp;tr":["udp%3A%2F%2Ftracker.leechers-paradise.org%3A6969","udp%3A%2F%2Fzer0day.ch%3A1337","udp%3A%2F%2Fopen.demonii.com%3A1337","udp%3A%2F%2Ftracker.coppersurfer.tk%3A6969","udp%3A%2F%2Fexodus.desync.com%3A6969"],"infoHash":"459f3b207f446aab688ea1e5a14d52e8145f03f9","infoHashBuffer":{"type":"Buffer","data":[69,159,59,32,127,68,106,171,104,142,161,229,161,77,82,232,20,95,3,249]},"announce":[],"urlList":[]}}